<svg width="18" height="30" viewBox="0 0 18 30" fill="none" xmlns="http://www.w3.org/2000/svg">
<path d="M4.75 0.925415H13.25C14.3772 0.925415 15.4582 1.37318 16.2552 2.17021C17.0522 2.96724 17.5 4.04824 17.5 5.17541V25.0087C17.5 26.1359 17.0522 27.2169 16.2552 28.014C15.4582 28.811 14.3772 29.2587 13.25 29.2587H4.75C3.62283 29.2587 2.54183 28.811 1.7448 28.014C0.947767 27.2169 0.5 26.1359 0.5 25.0087L0.5 5.17541C0.5 4.04824 0.947767 2.96724 1.7448 2.17021C2.54183 1.37318 3.62283 0.925415 4.75 0.925415V0.925415ZM9 25.0087C9.37572 25.0087 9.73606 24.8595 10.0017 24.5938C10.2674 24.3281 10.4167 23.9678 10.4167 23.5921C10.4167 23.2164 10.2674 22.856 10.0017 22.5903C9.73606 22.3247 9.37572 22.1754 9 22.1754C8.62428 22.1754 8.26394 22.3247 7.99827 22.5903C7.73259 22.856 7.58333 23.2164 7.58333 23.5921C7.58333 23.9678 7.73259 24.3281 7.99827 24.5938C8.26394 24.8595 8.62428 25.0087 9 25.0087Z" fill="#FFCA0E"/>
</svg>
