<svg width="30" height="22" viewBox="0 0 30 22" fill="none" xmlns="http://www.w3.org/2000/svg">
<path d="M30 8H0L6 0.5H24L30 8ZM30 11V18.5C30 19.2956 29.6839 20.0587 29.1213 20.6213C28.5587 21.1839 27.7956 21.5 27 21.5H3C2.20435 21.5 1.44129 21.1839 0.87868 20.6213C0.316071 20.0587 0 19.2956 0 18.5V11H9.189C9.52266 12.2874 10.2744 13.4275 11.3261 14.2414C12.3779 15.0553 13.6701 15.4969 15 15.4969C16.3299 15.4969 17.6221 15.0553 18.6739 14.2414C19.7256 13.4275 20.4773 12.2874 20.811 11H30ZM12.3975 11H17.595C17.3318 11.4564 16.953 11.8354 16.4968 12.0989C16.0406 12.3624 15.5231 12.5012 14.9963 12.5012C14.4694 12.5012 13.9519 12.3624 13.4957 12.0989C13.0395 11.8354 12.6607 11.4564 12.3975 11V11Z" fill="#FFCA0E"/>
</svg>
