<svg width="31" height="23" viewBox="0 0 31 23" fill="none" xmlns="http://www.w3.org/2000/svg">
<path d="M3.16634 0.808594H27.833C28.6508 0.808594 29.435 1.13344 30.0133 1.71168C30.5915 2.28992 30.9163 3.07418 30.9163 3.89193V19.3086C30.9163 20.1263 30.5915 20.9106 30.0133 21.4888C29.435 22.0671 28.6508 22.3919 27.833 22.3919H3.16634C2.34859 22.3919 1.56433 22.0671 0.986095 21.4888C0.407858 20.9106 0.0830078 20.1263 0.0830078 19.3086V3.89193C0.0830078 3.07418 0.407858 2.28992 0.986095 1.71168C1.56433 1.13344 2.34859 0.808594 3.16634 0.808594ZM7.79134 13.1419C7.38247 13.1419 6.99034 13.3044 6.70122 13.5935C6.4121 13.8826 6.24967 14.2747 6.24967 14.6836C6.24967 15.0925 6.4121 15.4846 6.70122 15.7737C6.99034 16.0628 7.38247 16.2253 7.79134 16.2253H17.0413C17.4502 16.2253 17.8423 16.0628 18.1315 15.7737C18.4206 15.4846 18.583 15.0925 18.583 14.6836C18.583 14.2747 18.4206 13.8826 18.1315 13.5935C17.8423 13.3044 17.4502 13.1419 17.0413 13.1419H7.79134ZM23.208 5.43359V8.51693H26.2913V5.43359H23.208Z" fill="#FFCA0E"/>
</svg>
