<svg width="30" height="30" viewBox="0 0 30 30" fill="none" xmlns="http://www.w3.org/2000/svg">
<path d="M13.1075 20.9125C12.9435 20.9128 12.7809 20.8808 12.6293 20.8181C12.4776 20.7555 12.3398 20.6635 12.2238 20.5475L6.9213 15.2437C6.80183 15.1285 6.70651 14.9907 6.64089 14.8382C6.57527 14.6857 6.54068 14.5217 6.53912 14.3558C6.53756 14.1898 6.56907 14.0252 6.63181 13.8715C6.69456 13.7178 6.78727 13.5782 6.90455 13.4608C7.02184 13.3433 7.16133 13.2504 7.31491 13.1874C7.46848 13.1245 7.63306 13.0927 7.79903 13.0941C7.965 13.0954 8.12905 13.1298 8.2816 13.1952C8.43415 13.2606 8.57215 13.3557 8.68755 13.475L13.1063 17.8937L21.0625 9.93999C21.2969 9.70544 21.6149 9.5736 21.9465 9.57349C22.2781 9.57337 22.5961 9.70498 22.8307 9.93936C23.0652 10.1737 23.1971 10.4917 23.1972 10.8233C23.1973 11.1549 23.0657 11.4729 22.8313 11.7075L13.9913 20.5475C13.8753 20.6635 13.7375 20.7555 13.5858 20.8181C13.4342 20.8808 13.2716 20.9128 13.1075 20.9125V20.9125Z" fill="black"/>
</svg>
