<svg width="26" height="38" viewBox="0 0 26 38" fill="none" xmlns="http://www.w3.org/2000/svg">
<path d="M13.0003 37.4526C4.44416 26.2876 0.166992 18.3437 0.166992 13.6192C0.166992 10.2156 1.51907 6.9514 3.92579 4.54468C6.3325 2.13797 9.59671 0.785889 13.0003 0.785889C16.4039 0.785889 19.6681 2.13797 22.0749 4.54468C24.4816 6.9514 25.8337 10.2156 25.8337 13.6192C25.8337 18.3437 21.5565 26.2876 13.0003 37.4526ZM13.0003 20.9526C14.9452 20.9526 16.8105 20.1799 18.1858 18.8047C19.561 17.4294 20.3337 15.5641 20.3337 13.6192C20.3337 11.6743 19.561 9.80904 18.1858 8.43377C16.8105 7.05851 14.9452 6.28589 13.0003 6.28589C11.0554 6.28589 9.19014 7.05851 7.81488 8.43377C6.43961 9.80904 5.66699 11.6743 5.66699 13.6192C5.66699 15.5641 6.43961 17.4294 7.81488 18.8047C9.19014 20.1799 11.0554 20.9526 13.0003 20.9526V20.9526Z" fill="#00FF00"/>
</svg>
