<svg width="138" height="122" viewBox="0 0 138 122" fill="none" xmlns="http://www.w3.org/2000/svg">
<rect x="15.2852" width="112.245" height="69.2177" rx="6" transform="rotate(12.7581 15.2852 0)" fill="#F7931A"/>
<rect x="12.6416" y="11.6771" width="112.245" height="16.4626" transform="rotate(12.7581 12.6416 11.6771)" fill="#474747"/>
<rect x="18.6309" y="36.0507" width="59.1156" height="4.86394" transform="rotate(12.7581 18.6309 36.0507)" fill="white"/>
<rect x="16.7305" y="44.4437" width="59.1156" height="4.86394" transform="rotate(12.7581 16.7305 44.4437)" fill="white"/>
<rect x="14.8301" y="52.8367" width="59.1156" height="4.86394" transform="rotate(12.7581 14.8301 52.8367)" fill="white"/>
<rect x="15" y="53.6597" width="112.245" height="69.2177" rx="6" transform="rotate(-10.2288 15 53.6597)" fill="#FFCA0E"/>
<rect x="17.126" y="65.4421" width="112.245" height="16.4626" transform="rotate(-10.2288 17.126 65.4421)" fill="#474747"/>
<rect x="32.1592" y="85.5411" width="59.1156" height="4.86394" transform="rotate(-10.2288 32.1592 85.5411)" fill="white"/>
<rect x="33.6865" y="94.0098" width="59.1156" height="4.86394" transform="rotate(-10.2288 33.6865 94.0098)" fill="white"/>
<rect x="35.2148" y="102.478" width="59.1156" height="4.86394" transform="rotate(-10.2288 35.2148 102.478)" fill="white"/>
</svg>
