<svg width="36" height="36" viewBox="0 0 36 36" fill="none" xmlns="http://www.w3.org/2000/svg">
<path fill-rule="evenodd" clip-rule="evenodd" d="M14.4039 22.705C14.1159 22.705 13.8279 22.5955 13.6089 22.375C13.1694 21.9355 13.1694 21.2245 13.6089 20.785L20.7969 13.597C21.2364 13.1575 21.9474 13.1575 22.3869 13.597C22.8264 14.0365 22.8264 14.7475 22.3869 15.187L15.1989 22.375C14.9799 22.5955 14.6919 22.705 14.4039 22.705" fill="white"/>
<path fill-rule="evenodd" clip-rule="evenodd" d="M21.595 22.7093C21.307 22.7093 21.019 22.5998 20.8 22.3793L13.606 15.1838C13.1665 14.7443 13.1665 14.0333 13.606 13.5938C14.047 13.1543 14.758 13.1543 15.196 13.5938L22.39 20.7893C22.8295 21.2288 22.8295 21.9398 22.39 22.3793C22.171 22.5998 21.8815 22.7093 21.595 22.7093" fill="white"/>
<path fill-rule="evenodd" clip-rule="evenodd" d="M11.4975 5.25C7.7025 5.25 5.25 7.8495 5.25 11.874V24.126C5.25 28.1505 7.7025 30.75 11.4975 30.75H24.4995C28.296 30.75 30.75 28.1505 30.75 24.126V11.874C30.75 7.8495 28.296 5.25 24.501 5.25H11.4975ZM24.4995 33H11.4975C6.414 33 3 29.433 3 24.126V11.874C3 6.567 6.414 3 11.4975 3H24.501C29.5845 3 33 6.567 33 11.874V24.126C33 29.433 29.5845 33 24.4995 33V33Z" fill="white"/>
</svg>
